<svg width="40" height="40" viewBox="0 0 40 40" fill="none" xmlns="http://www.w3.org/2000/svg">
<path d="M27.4978 5.12099C25.8198 3.99105 24.8031 2.06801 24.8031 0H20.546L20.5377 17.5973C20.4633 19.6312 18.8018 21.2216 16.8303 21.1406C14.8589 21.0639 13.3172 19.3498 13.3957 17.3159C13.4701 15.3331 15.049 13.7683 16.9709 13.7683C17.3304 13.7683 17.6859 13.828 18.0248 13.9388V9.45315C17.6735 9.40198 17.3222 9.3764 16.9709 9.37214C12.6518 9.37214 9.13867 12.9965 9.13867 17.4523C9.14694 21.9124 12.6477 25.5282 16.975 25.5325C21.2941 25.5325 24.8072 21.9081 24.8072 17.4523V8.53214C26.5307 9.81132 28.6014 10.5021 30.7258 10.4978V6.10596C29.5768 6.11022 28.4567 5.76484 27.4978 5.12099Z" fill="white"/>
<path d="M0 30.4956H6.85679L6.22856 32.521H4.45133V40.0042H2.23187V32.5167L0 32.521V30.4956Z" fill="white"/>
<path d="M18.0908 30.4956H25.1047L24.4764 32.521H22.5422V40.0042H20.3227V32.5167L18.0908 32.521V30.4956Z" fill="white"/>
<path d="M7.27441 33.5188H9.47322V40H7.28681L7.27441 33.5188Z" fill="white"/>
<path d="M10.3447 30.4658H12.5394V34.8918L14.7175 32.6873H17.3379L14.5853 35.4418L17.6686 39.9957H15.2507L13.1924 36.8404L12.5394 37.4928V39.9957H10.3447V30.4658Z" fill="white"/>
<path d="M32.6758 30.4658H34.8705V34.8918L37.0486 32.6873H39.669L36.9163 35.4418L39.9996 39.9957H37.5818L35.5235 36.8404L34.8705 37.4928V39.9957H32.6758V30.4658Z" fill="white"/>
<path d="M8.37329 32.7769C8.98504 32.7769 9.48096 32.2653 9.48096 31.6342C9.48096 31.0031 8.98504 30.4915 8.37329 30.4915C7.76154 30.4915 7.26562 31.0031 7.26562 31.6342C7.26562 32.2653 7.76154 32.7769 8.37329 32.7769Z" fill="white"/>
<path d="M28.0218 32.2397C25.9429 32.2397 24.2607 33.9752 24.2607 36.1199C24.2607 38.2647 25.9429 40.0001 28.0218 40.0001C30.1008 40.0001 31.783 38.2647 31.783 36.1199C31.783 33.9752 30.0967 32.2397 28.0218 32.2397ZM28.0218 38.0046C27.0134 38.0046 26.195 37.1603 26.195 36.1199C26.195 35.0795 27.0134 34.2353 28.0218 34.2353C29.0303 34.2353 29.8487 35.0795 29.8487 36.1199C29.8487 37.1603 29.0303 38.0046 28.0218 38.0046Z" fill="white"/>
</svg>
